<?xml version="1.0" encoding="UTF-8"?>
<svg width="512px" height="512px" viewBox="0 0 512 512" version="1.1" xmlns="http://www.w3.org/2000/svg" xmlns:xlink="http://www.w3.org/1999/xlink">
    <!-- Generator: Sketch 53.1 (72631) - https://sketchapp.com -->
    <title>icon</title>
    <desc>Created with Sketch.</desc>
    <g id="icon" stroke="none" stroke-width="1" fill="none" fill-rule="evenodd">
        <circle id="Oval" fill="#E520AF" cx="256" cy="256" r="256"></circle>
        <path d="M390.887389,299.693102 C371.470312,298.239238 358.602072,311.567987 351.335007,339.81876 C338.272247,390.594471 292.889255,417.24699 233.999599,417.24699 C189.389699,417.24699 153.937199,402.494251 133.592411,374.049297 C150.999449,376.170345 278.744166,397.365894 281.292876,343.084976 C282.878961,309.297568 247.765624,293.389704 247.765624,293.389704 C247.765624,293.389704 247.306756,293.35983 246.618455,293.305062 C249.71581,293.5092 252.833117,293.643633 255.985337,293.643633 C326.645942,293.643633 383.924574,242.82311 383.924574,150.851259 C384.333565,98.706326 376.088913,76.4303373 362.402691,54 C338.865782,66.1238338 319.78288,85.0539431 308.076772,108.022011 L308.066796,108.017032 C291.617394,103.132646 274.125565,100.498761 255.985337,100.498761 C237.845108,100.498761 220.353279,103.132646 203.903877,108.017032 L203.893902,108.022011 C192.187793,85.0589221 173.104891,66.1238338 149.567982,54 C135.881761,76.4253583 127.637109,98.706326 128.041112,150.851259 C128.041112,188.641772 137.727206,219.466681 154.017002,242.688678 L154.007026,242.67872 C121.991044,256.580052 90,296.586214 90,337.637964 C90,404.112422 164.326557,458 256.015263,458 C345.274964,458 417.456814,406.128911 421.860944,342.133989 C423.172707,323.159069 415.381935,301.535327 390.887389,299.693102 Z M311.500001,195 C320.613862,195 328,202.386139 328,211.5 C328,220.613861 320.613862,228 311.500001,228 C302.386141,228 295.000002,220.613861 295.000002,211.5 C294.995052,202.391089 302.386141,195 311.500001,195 Z M270,241.859919 C270,249.668256 263.507089,256 255.5,256 C247.492911,256 241,249.668256 241,241.859919 C241,234.046694 270,234.046694 270,241.859919 Z M201.500001,195 C210.613862,195 218,202.386139 218,211.5 C218,220.613861 210.613862,228 201.500001,228 C192.386141,228 185.000002,220.613861 185.000002,211.5 C184.995052,202.391089 192.386141,195 201.500001,195 Z" id="Shape" fill="#FFFFFF" fill-rule="nonzero"></path>
    </g>
</svg>